<svg width="66" height="65" viewBox="0 0 66 65" fill="none" xmlns="http://www.w3.org/2000/svg">
<g filter="url(#filter0_d_103_1424)">
<path d="M31.9556 1L37.2652 6.06473L44.1758 3.59748L46.9663 10.3839L54.283 10.9408L54.0719 18.2756L60.5295 21.7602L57.3535 28.375L61.8354 34.1849L56.2434 38.9361L57.9748 46.0667L50.9338 48.1326L49.6153 55.3509L42.3427 54.3744L38.2022 60.4323L31.9556 56.5822L25.709 60.4323L21.5684 54.3744L14.2959 55.3509L12.9773 48.1326L5.93633 46.0667L7.66771 38.9361L2.07572 34.1849L6.5577 28.375L3.38161 21.7602L9.83921 18.2756L9.6282 10.9408L16.9448 10.3839L19.7354 3.59748L26.646 6.06473L31.9556 1Z" fill="white"/>
</g>
<path d="M35.9904 10.4833L36.2696 10.7495L36.6329 10.6198L41.8843 8.74495L44.0048 13.902L44.1516 14.2588L44.5362 14.2881L50.0962 14.7112L49.9358 20.2849L49.9247 20.6706L50.2642 20.8538L55.1714 23.5018L52.7579 28.5284L52.5909 28.8762L52.8265 29.1816L56.2324 33.5966L51.983 37.207L51.689 37.4568L51.7801 37.8317L53.0957 43.2502L47.7453 44.8201L47.3751 44.9287L47.3058 45.3082L46.3038 50.7935L40.7774 50.0514L40.395 50.0001L40.1773 50.3186L37.0309 54.9221L32.2841 51.9963L31.9557 51.7939L31.6272 51.9963L26.8804 54.9221L23.734 50.3186L23.5163 50.0001L23.134 50.0514L17.6075 50.7935L16.6056 45.3082L16.5362 44.9287L16.166 44.8201L10.8156 43.2502L12.1313 37.8317L12.2223 37.4568L11.9283 37.207L7.67892 33.5966L11.0848 29.1816L11.3204 28.8762L11.1534 28.5284L8.73993 23.5018L13.6471 20.8538L13.9866 20.6706L13.9755 20.2849L13.8152 14.7112L19.3751 14.2881L19.7598 14.2588L19.9065 13.902L22.027 8.74495L27.2784 10.6198L27.6417 10.7495L27.9209 10.4833L31.9557 6.63455L35.9904 10.4833Z" fill="#244386" stroke="black" stroke-width="1.25185"/>
<path fill-rule="evenodd" clip-rule="evenodd" d="M25.9399 28.3182C26.2407 28.0395 26.7104 28.0573 26.9892 28.358L31.9125 33.67L37.831 29.4953C38.1661 29.259 38.6293 29.339 38.8657 29.6741C39.102 30.0091 39.022 30.4724 38.6869 30.7087L31.7067 35.6323L25.9001 29.3674C25.6214 29.0667 25.6392 28.5969 25.9399 28.3182Z" fill="white"/>
<line x1="33.1169" y1="23.1216" x2="32.0313" y2="33.4707" stroke="white" stroke-width="1.57567" stroke-linecap="round"/>
<line x1="25.0855" y1="37.8377" x2="37.7261" y2="39.1637" stroke="white" stroke-width="1.57567" stroke-linecap="round"/>
<defs>
<filter id="filter0_d_103_1424" x="0.823832" y="0.374074" width="64.7672" height="64.439" filterUnits="userSpaceOnUse" color-interpolation-filters="sRGB">
<feFlood flood-opacity="0" result="BackgroundImageFix"/>
<feColorMatrix in="SourceAlpha" type="matrix" values="0 0 0 0 0 0 0 0 0 0 0 0 0 0 0 0 0 0 127 0" result="hardAlpha"/>
<feOffset dx="1.25185" dy="1.87778"/>
<feGaussianBlur stdDeviation="1.25185"/>
<feComposite in2="hardAlpha" operator="out"/>
<feColorMatrix type="matrix" values="0 0 0 0 0 0 0 0 0 0 0 0 0 0 0 0 0 0 0.25 0"/>
<feBlend mode="normal" in2="BackgroundImageFix" result="effect1_dropShadow_103_1424"/>
<feBlend mode="normal" in="SourceGraphic" in2="effect1_dropShadow_103_1424" result="shape"/>
</filter>
</defs>
</svg>
