<svg width="66" height="65" viewBox="0 0 66 65" fill="none" xmlns="http://www.w3.org/2000/svg">
<g filter="url(#filter0_d_103_1400)">
<path d="M32.0444 1L37.354 6.06473L44.2646 3.59748L47.0552 10.3839L54.3718 10.9408L54.1608 18.2756L60.6184 21.7602L57.4423 28.375L61.9243 34.1849L56.3323 38.9361L58.0637 46.0667L51.0227 48.1326L49.7041 55.3509L42.4316 54.3744L38.291 60.4323L32.0444 56.5822L25.7979 60.4323L21.6573 54.3744L14.3848 55.3509L13.0662 48.1326L6.02519 46.0667L7.75658 38.9361L2.16459 34.1849L6.64657 28.375L3.47048 21.7602L9.92808 18.2756L9.71707 10.9408L17.0337 10.3839L19.8243 3.59748L26.7348 6.06473L32.0444 1Z" fill="white"/>
</g>
<path d="M36.0793 10.4833L36.3585 10.7495L36.7218 10.6198L41.9732 8.74495L44.0937 13.902L44.2404 14.2588L44.6251 14.2881L50.185 14.7112L50.0247 20.2849L50.0136 20.6706L50.3531 20.8538L55.2603 23.5018L52.8467 28.5284L52.6798 28.8762L52.9154 29.1816L56.3213 33.5966L52.0719 37.207L51.7779 37.4568L51.8689 37.8317L53.1846 43.2502L47.8341 44.8201L47.464 44.9287L47.3946 45.3082L46.3926 50.7935L40.8662 50.0514L40.4839 50.0001L40.2662 50.3186L37.1197 54.9221L32.3729 51.9963L32.0445 51.7939L31.7161 51.9963L26.9693 54.9221L23.8229 50.3186L23.6052 50.0001L23.2228 50.0514L17.6964 50.7935L16.6944 45.3082L16.6251 44.9287L16.2549 44.8201L10.9044 43.2502L12.2201 37.8317L12.3112 37.4568L12.0172 37.207L7.76779 33.5966L11.1737 29.1816L11.4093 28.8762L11.2423 28.5284L8.8288 23.5018L13.7359 20.8538L14.0755 20.6706L14.0644 20.2849L13.904 14.7112L19.464 14.2881L19.8486 14.2588L19.9954 13.902L22.1159 8.74495L27.3673 10.6198L27.7306 10.7495L28.0097 10.4833L32.0445 6.63455L36.0793 10.4833Z" fill="#FF566F" stroke="black" stroke-width="1.25185"/>
<path d="M28.6951 28.6402L26.4049 29.2243L27.1838 32.2779L29.474 31.6938L31.8107 40.8545L35.6277 39.8809L33.291 30.7201L36.0392 30.0191L35.5657 26.8877L32.5121 27.6666L32.1811 26.3688C32.0058 25.6817 32.0806 25.3374 32.7677 25.1622L34.9815 24.5975L34.0079 20.7805L31.107 21.5205C28.3588 22.2215 27.4489 23.7545 28.0331 26.0446L28.6951 28.6402Z" fill="white"/>
<defs>
<filter id="filter0_d_103_1400" x="0.912699" y="0.374074" width="64.7672" height="64.439" filterUnits="userSpaceOnUse" color-interpolation-filters="sRGB">
<feFlood flood-opacity="0" result="BackgroundImageFix"/>
<feColorMatrix in="SourceAlpha" type="matrix" values="0 0 0 0 0 0 0 0 0 0 0 0 0 0 0 0 0 0 127 0" result="hardAlpha"/>
<feOffset dx="1.25185" dy="1.87778"/>
<feGaussianBlur stdDeviation="1.25185"/>
<feComposite in2="hardAlpha" operator="out"/>
<feColorMatrix type="matrix" values="0 0 0 0 0 0 0 0 0 0 0 0 0 0 0 0 0 0 0.25 0"/>
<feBlend mode="normal" in2="BackgroundImageFix" result="effect1_dropShadow_103_1400"/>
<feBlend mode="normal" in="SourceGraphic" in2="effect1_dropShadow_103_1400" result="shape"/>
</filter>
</defs>
</svg>
