<svg width="66" height="65" viewBox="0 0 66 65" fill="none" xmlns="http://www.w3.org/2000/svg">
<g filter="url(#filter0_d_103_1406)">
<path d="M31.522 1L36.8316 6.06473L43.7422 3.59748L46.5327 10.3839L53.8494 10.9408L53.6383 18.2756L60.0959 21.7602L56.9199 28.375L61.4018 34.1849L55.8099 38.9361L57.5412 46.0667L50.5003 48.1326L49.1817 55.3509L41.9091 54.3744L37.7686 60.4323L31.522 56.5822L25.2754 60.4323L21.1348 54.3744L13.8623 55.3509L12.5437 48.1326L5.50273 46.0667L7.23412 38.9361L1.64213 34.1849L6.12411 28.375L2.94802 21.7602L9.40562 18.2756L9.19461 10.9408L16.5113 10.3839L19.3018 3.59748L26.2124 6.06473L31.522 1Z" fill="white"/>
</g>
<path d="M35.5568 10.4833L35.836 10.7495L36.1993 10.6198L41.4507 8.74495L43.5712 13.902L43.718 14.2588L44.1026 14.2881L49.6626 14.7112L49.5022 20.2849L49.4911 20.6706L49.8307 20.8538L54.7378 23.5018L52.3243 28.5284L52.1573 28.8762L52.3929 29.1816L55.7988 33.5966L51.5494 37.207L51.2554 37.4568L51.3465 37.8317L52.6621 43.2502L47.3117 44.8201L46.9415 44.9287L46.8722 45.3082L45.8702 50.7935L40.3438 50.0514L39.9614 50.0001L39.7437 50.3186L36.5973 54.9221L31.8505 51.9963L31.5221 51.7939L31.1936 51.9963L26.4468 54.9221L23.3004 50.3186L23.0827 50.0001L22.7004 50.0514L17.174 50.7935L16.172 45.3082L16.1026 44.9287L15.7324 44.8201L10.382 43.2502L11.6977 37.8317L11.7887 37.4568L11.4947 37.207L7.24533 33.5966L10.6512 29.1816L10.8868 28.8762L10.7199 28.5284L8.30634 23.5018L13.2135 20.8538L13.553 20.6706L13.5419 20.2849L13.3816 14.7112L18.9415 14.2881L19.3262 14.2588L19.4729 13.902L21.5934 8.74495L26.8448 10.6198L27.2081 10.7495L27.4873 10.4833L31.5221 6.63455L35.5568 10.4833Z" fill="#244386" stroke="black" stroke-width="1.25185"/>
<path d="M27.0882 24.7886C27.0283 25.7156 26.2614 26.3974 25.3453 26.3382C24.4292 26.279 23.7565 25.5042 23.8164 24.5772C23.8763 23.6502 24.6431 22.9684 25.5593 23.0276C26.4754 23.0868 27.1481 23.8617 27.0882 24.7886ZM26.8957 27.7682L23.6238 27.5568L22.9392 38.1508L26.211 38.3622L26.8957 27.7682ZM32.1306 28.1065L28.8588 27.8951L28.1741 38.4891L31.446 38.7005L31.8054 33.1387C32.0065 30.0267 35.9498 30.0155 35.7316 33.3924L35.3722 38.9542L38.644 39.1657L39.0762 32.4782C39.4142 27.2474 33.5775 27.0697 32.0365 29.5632L32.1306 28.1065Z" fill="white"/>
<defs>
<filter id="filter0_d_103_1406" x="0.390238" y="0.374074" width="64.7672" height="64.439" filterUnits="userSpaceOnUse" color-interpolation-filters="sRGB">
<feFlood flood-opacity="0" result="BackgroundImageFix"/>
<feColorMatrix in="SourceAlpha" type="matrix" values="0 0 0 0 0 0 0 0 0 0 0 0 0 0 0 0 0 0 127 0" result="hardAlpha"/>
<feOffset dx="1.25185" dy="1.87778"/>
<feGaussianBlur stdDeviation="1.25185"/>
<feComposite in2="hardAlpha" operator="out"/>
<feColorMatrix type="matrix" values="0 0 0 0 0 0 0 0 0 0 0 0 0 0 0 0 0 0 0.25 0"/>
<feBlend mode="normal" in2="BackgroundImageFix" result="effect1_dropShadow_103_1406"/>
<feBlend mode="normal" in="SourceGraphic" in2="effect1_dropShadow_103_1406" result="shape"/>
</filter>
</defs>
</svg>
