<svg width="66" height="65" viewBox="0 0 66 65" fill="none" xmlns="http://www.w3.org/2000/svg">
<g filter="url(#filter0_d_103_1418)">
<path d="M31.478 1L36.7876 6.06473L43.6982 3.59748L46.4888 10.3839L53.8054 10.9408L53.5944 18.2756L60.052 21.7602L56.8759 28.375L61.3579 34.1849L55.7659 38.9361L57.4973 46.0667L50.4563 48.1326L49.1377 55.3509L41.8652 54.3744L37.7246 60.4323L31.478 56.5822L25.2314 60.4323L21.0909 54.3744L13.8184 55.3509L12.4998 48.1326L5.45879 46.0667L7.19017 38.9361L1.59818 34.1849L6.08016 28.375L2.90407 21.7602L9.36168 18.2756L9.15067 10.9408L16.4673 10.3839L19.2579 3.59748L26.1684 6.06473L31.478 1Z" fill="white"/>
</g>
<path d="M35.5129 10.4833L35.7921 10.7495L36.1554 10.6198L41.4067 8.74495L43.5273 13.902L43.674 14.2588L44.0587 14.2881L49.6186 14.7112L49.4583 20.2849L49.4472 20.6706L49.7867 20.8538L54.6938 23.5018L52.2803 28.5284L52.1133 28.8762L52.349 29.1816L55.7549 33.5966L51.5055 37.207L51.2115 37.4568L51.3025 37.8317L52.6182 43.2502L47.2677 44.8201L46.8976 44.9287L46.8282 45.3082L45.8262 50.7935L40.2998 50.0514L39.9175 50.0001L39.6998 50.3186L36.5533 54.9221L31.8065 51.9963L31.4781 51.7939L31.1497 51.9963L26.4029 54.9221L23.2565 50.3186L23.0388 50.0001L22.6564 50.0514L17.13 50.7935L16.128 45.3082L16.0587 44.9287L15.6885 44.8201L10.338 43.2502L11.6537 37.8317L11.7448 37.4568L11.4507 37.207L7.20138 33.5966L10.6072 29.1816L10.8429 28.8762L10.6759 28.5284L8.26239 23.5018L13.1695 20.8538L13.5091 20.6706L13.498 20.2849L13.3376 14.7112L18.8975 14.2881L19.2822 14.2588L19.4289 13.902L21.5495 8.74495L26.8009 10.6198L27.1642 10.7495L27.4433 10.4833L31.4781 6.63455L35.5129 10.4833Z" fill="#244386" stroke="black" stroke-width="1.25185"/>
<path fill-rule="evenodd" clip-rule="evenodd" d="M24.0448 23.8537L36.6923 22.1124C37.0694 22.0605 37.3948 22.0156 37.6659 22.0012C37.952 21.9859 38.2405 21.9994 38.5307 22.1034C38.9636 22.2586 39.3383 22.5497 39.601 22.935C39.7771 23.1933 39.8678 23.4745 39.9308 23.761C39.9905 24.0325 40.0364 24.3657 40.0895 24.752L41.4695 34.7749C41.5227 35.1612 41.5686 35.4944 41.5845 35.7719C41.6013 36.0648 41.5899 36.36 41.4902 36.6563C41.3413 37.0983 41.0593 37.4798 40.6844 37.7462C40.4332 37.9247 40.159 38.0157 39.8794 38.0784C39.6145 38.1377 39.2892 38.1825 38.912 38.2344L26.2645 39.9757C25.8873 40.0277 25.562 40.0725 25.2909 40.0869C25.0048 40.1022 24.7163 40.0887 24.4261 39.9847C23.9932 39.8295 23.6185 39.5384 23.3558 39.1531C23.1797 38.8948 23.089 38.6136 23.026 38.3271C22.9663 38.0556 22.9204 37.7224 22.8672 37.3361L21.4873 27.3133C21.4341 26.927 21.3882 26.5937 21.3723 26.3162C21.3555 26.0233 21.3668 25.7281 21.4666 25.4318C21.6154 24.9898 21.8975 24.6083 22.2723 24.3419C22.5236 24.1634 22.7977 24.0724 23.0773 24.0098C23.3423 23.9504 23.6676 23.9056 24.0448 23.8537ZM23.395 25.4545C23.2029 25.4975 23.1346 25.535 23.1018 25.5584C22.9768 25.6472 22.8828 25.7743 22.8332 25.9217C22.8202 25.9604 22.8034 26.0379 22.8149 26.2392C22.8269 26.4491 22.8639 26.722 22.9221 27.1445L24.2943 37.1108C24.3525 37.5333 24.3906 37.806 24.4357 38.0114C24.479 38.2083 24.5161 38.2784 24.5391 38.3121C24.6267 38.4406 24.7516 38.5376 24.8959 38.5893C24.9338 38.6029 25.0097 38.6206 25.2063 38.6101C25.4114 38.5992 25.6778 38.5631 26.0903 38.5063L38.6826 36.7725C39.0951 36.7157 39.3614 36.6785 39.5618 36.6336C39.7539 36.5906 39.8222 36.5531 39.855 36.5297C39.98 36.4409 40.074 36.3138 40.1236 36.1664C40.1366 36.1277 40.1534 36.0502 40.1419 35.8489C40.1299 35.639 40.0929 35.3661 40.0347 34.9436L38.6625 24.9773C38.6043 24.5548 38.5662 24.2821 38.5211 24.0767C38.4778 23.8798 38.4406 23.8097 38.4176 23.776C38.33 23.6475 38.2052 23.5505 38.0609 23.4988C38.0229 23.4852 37.9471 23.4675 37.7505 23.478C37.5454 23.4889 37.279 23.525 36.8665 23.5818L24.2742 25.3156C23.8617 25.3724 23.5954 25.4096 23.395 25.4545Z" fill="white"/>
<path fill-rule="evenodd" clip-rule="evenodd" d="M24.5443 27.0268C24.7626 26.6864 25.2104 26.5933 25.5444 26.8188L31.4452 30.8031L36.0497 25.3725C36.3104 25.065 36.7667 25.0336 37.0688 25.3024C37.3709 25.5711 37.4045 26.0383 37.1439 26.3457L31.7134 32.7506L24.754 28.0516C24.4199 27.826 24.3261 27.3672 24.5443 27.0268Z" fill="white"/>
<defs>
<filter id="filter0_d_103_1418" x="0.346293" y="0.374074" width="64.7672" height="64.439" filterUnits="userSpaceOnUse" color-interpolation-filters="sRGB">
<feFlood flood-opacity="0" result="BackgroundImageFix"/>
<feColorMatrix in="SourceAlpha" type="matrix" values="0 0 0 0 0 0 0 0 0 0 0 0 0 0 0 0 0 0 127 0" result="hardAlpha"/>
<feOffset dx="1.25185" dy="1.87778"/>
<feGaussianBlur stdDeviation="1.25185"/>
<feComposite in2="hardAlpha" operator="out"/>
<feColorMatrix type="matrix" values="0 0 0 0 0 0 0 0 0 0 0 0 0 0 0 0 0 0 0.25 0"/>
<feBlend mode="normal" in2="BackgroundImageFix" result="effect1_dropShadow_103_1418"/>
<feBlend mode="normal" in="SourceGraphic" in2="effect1_dropShadow_103_1418" result="shape"/>
</filter>
</defs>
</svg>
