<svg width="66" height="65" viewBox="0 0 66 65" fill="none" xmlns="http://www.w3.org/2000/svg">
<g filter="url(#filter0_d_103_1412)">
<path d="M32 1L37.3096 6.06473L44.2202 3.59748L47.0107 10.3839L54.3274 10.9408L54.1164 18.2756L60.574 21.7602L57.3979 28.375L61.8799 34.1849L56.2879 38.9361L58.0193 46.0667L50.9783 48.1326L49.6597 55.3509L42.3872 54.3744L38.2466 60.4323L32 56.5822L25.7534 60.4323L21.6129 54.3744L14.3403 55.3509L13.0217 48.1326L5.98076 46.0667L7.71214 38.9361L2.12015 34.1849L6.60213 28.375L3.42605 21.7602L9.88365 18.2756L9.67264 10.9408L16.9893 10.3839L19.7798 3.59748L26.6904 6.06473L32 1Z" fill="white"/>
</g>
<path d="M36.0349 10.4833L36.314 10.7495L36.6774 10.6198L41.9287 8.74495L44.0493 13.902L44.196 14.2588L44.5807 14.2881L50.1406 14.7112L49.9803 20.2849L49.9692 20.6706L50.3087 20.8538L55.2158 23.5018L52.8023 28.5284L52.6353 28.8762L52.871 29.1816L56.2768 33.5966L52.0275 37.207L51.7335 37.4568L51.8245 37.8317L53.1402 43.2502L47.7897 44.8201L47.4195 44.9287L47.3502 45.3082L46.3482 50.7935L40.8218 50.0514L40.4394 50.0001L40.2217 50.3186L37.0753 54.9221L32.3285 51.9963L32.0001 51.7939L31.6717 51.9963L26.9249 54.9221L23.7785 50.3186L23.5608 50.0001L23.1784 50.0514L17.652 50.7935L16.65 45.3082L16.5807 44.9287L16.2105 44.8201L10.86 43.2502L12.1757 37.8317L12.2667 37.4568L11.9727 37.207L7.72335 33.5966L11.1292 29.1816L11.3649 28.8762L11.1979 28.5284L8.78436 23.5018L13.6915 20.8538L14.031 20.6706L14.0199 20.2849L13.8596 14.7112L19.4195 14.2881L19.8042 14.2588L19.9509 13.902L22.0715 8.74495L27.3228 10.6198L27.6862 10.7495L27.9653 10.4833L32.0001 6.63455L36.0349 10.4833Z" fill="#244386" stroke="black" stroke-width="1.25185"/>
<path d="M27.6942 36.4981C33.7096 38.6166 38.759 34.7787 40.2849 30.4461C40.3349 30.3041 40.3817 30.1619 40.4247 30.0189C41.2262 29.781 41.9848 29.3989 42.6541 28.8958C41.9762 28.9504 41.2838 28.9041 40.5943 28.7504C41.4124 28.5823 42.1572 28.1225 42.6714 27.4431C41.907 27.5962 41.1111 27.6228 40.3144 27.5077C39.9419 26.6602 39.2323 25.9622 38.2919 25.631C36.4856 24.9949 34.5038 25.9475 33.8663 27.7575C33.7757 28.0149 33.7164 28.2752 33.6877 28.535C31.018 27.4409 29.0674 25.2872 28.1532 22.7354C27.7014 23.1208 27.3412 23.6269 27.1298 24.2272C26.7292 25.3647 26.9529 26.5723 27.624 27.4692C27.0934 27.2637 26.6415 26.9383 26.2873 26.5373C26.2817 26.5507 26.2769 26.5645 26.2718 26.5789C25.7125 28.1669 26.3731 29.8898 27.7635 30.7172C27.4624 30.6956 27.1592 30.6342 26.8608 30.5291C26.6501 30.4549 26.4527 30.3616 26.2668 30.2535C26.2244 31.7026 27.0979 33.0759 28.52 33.6068C27.0908 34.0921 25.4961 34.1195 23.9639 33.5799C23.7001 33.487 23.4451 33.3802 23.1998 33.2597C24.3196 34.6993 25.8469 35.8475 27.6942 36.4981Z" fill="white"/>
<defs>
<filter id="filter0_d_103_1412" x="0.868265" y="0.374074" width="64.7672" height="64.439" filterUnits="userSpaceOnUse" color-interpolation-filters="sRGB">
<feFlood flood-opacity="0" result="BackgroundImageFix"/>
<feColorMatrix in="SourceAlpha" type="matrix" values="0 0 0 0 0 0 0 0 0 0 0 0 0 0 0 0 0 0 127 0" result="hardAlpha"/>
<feOffset dx="1.25185" dy="1.87778"/>
<feGaussianBlur stdDeviation="1.25185"/>
<feComposite in2="hardAlpha" operator="out"/>
<feColorMatrix type="matrix" values="0 0 0 0 0 0 0 0 0 0 0 0 0 0 0 0 0 0 0.25 0"/>
<feBlend mode="normal" in2="BackgroundImageFix" result="effect1_dropShadow_103_1412"/>
<feBlend mode="normal" in="SourceGraphic" in2="effect1_dropShadow_103_1412" result="shape"/>
</filter>
</defs>
</svg>
