<svg width="140" height="37" viewBox="0 0 140 37" fill="none" xmlns="http://www.w3.org/2000/svg">
<path fill-rule="evenodd" clip-rule="evenodd" d="M136.864 29.7363C138.598 29.7363 140 31.1331 140 32.8602C140 34.5874 138.598 35.9841 136.864 35.9841C135.13 35.9841 133.728 34.5874 133.728 32.8602C133.728 31.1331 135.13 29.7363 136.864 29.7363Z" fill="black"/>
<path fill-rule="evenodd" clip-rule="evenodd" d="M125.496 10.7094C124.818 10.0485 123.762 9.02727 123.114 8.39648C122.059 9.41776 110.194 21.0573 109.138 22.1086C110.194 23.1449 122.315 34.9647 123.37 36.001C124.064 35.3251 125.255 34.1387 125.933 33.4478C124.878 32.3965 114.144 21.8683 114.144 21.8683C114.144 21.8683 124.426 11.7607 125.496 10.7094Z" fill="black"/>
<path fill-rule="evenodd" clip-rule="evenodd" d="M104.042 34.6633H107.827V0H104.042V34.6633Z" fill="black"/>
<path fill-rule="evenodd" clip-rule="evenodd" d="M96.881 10.6174C95.5694 9.26575 93.8205 8.58991 91.6495 8.58991C90.5791 8.58991 89.2674 8.86025 87.6693 9.3859C86.0712 9.92658 84.0811 10.8728 81.684 12.2245L81.6689 12.1644L81.6538 8.34961H77.749V34.7076H81.6689V15.3484C83.2368 14.4172 84.7897 13.6512 86.3275 13.0505C87.8653 12.4497 89.1468 12.1494 90.1871 12.1494C91.9058 12.1494 93.1119 12.5699 93.8205 13.4109C94.514 14.252 94.8909 15.6337 94.9361 17.5561V34.7076H98.856V16.1594C98.8711 13.8164 98.2077 11.9541 96.881 10.6174Z" fill="black"/>
<path fill-rule="evenodd" clip-rule="evenodd" d="M57.7277 14.7032C58.7831 13.7269 60.0797 13.2313 61.6627 13.2313C63.2306 13.2313 64.4669 13.6969 65.4167 14.6581C66.1856 15.4391 66.6681 16.5505 66.9696 17.8421H55.8432C56.2955 16.5805 56.8684 15.4992 57.7277 14.7032ZM68.6431 30.2776L66.1705 30.3377C64.5724 30.3377 63.2005 30.2025 62.0848 29.9322C60.9843 29.6619 60.0043 29.2564 59.1449 28.7157C57.8031 27.8746 56.8232 26.8233 56.1749 25.5617C55.6472 24.5254 55.3758 23.339 55.2854 22.1224H72.6233L72.6082 21.2964C72.5931 19.1637 72.3217 17.2864 71.7941 15.7545C71.2664 14.1775 70.4673 12.8258 69.4421 11.7294C68.5074 10.7382 67.3917 10.0023 66.1253 9.50666C64.874 9.02606 63.4266 8.80078 61.8436 8.80078C60.2304 8.80078 58.6474 9.11617 57.1548 9.74696C55.6472 10.3627 54.3355 11.2789 53.3254 12.4503C52.1645 13.757 51.2901 15.2138 50.7172 16.7457C50.1292 18.2776 49.8428 20.0198 49.8428 21.8972C49.8428 23.8346 50.2498 25.6368 51.0338 27.2438C51.7876 28.8208 52.7525 30.1425 53.8833 31.1788C55.1648 32.3953 56.8533 33.3715 58.8585 34.0624C60.8486 34.7382 63.2005 35.0987 65.8389 35.0987L68.4471 35.0386L70.4673 34.8884V34.8734L71.0704 34.7833L71.0855 30.1274H71.0402L68.6431 30.2776Z" fill="black"/>
<path fill-rule="evenodd" clip-rule="evenodd" d="M32.1882 14.7032C33.2435 13.7269 34.5401 13.2313 36.1231 13.2313C37.6911 13.2313 38.9274 13.6969 39.8772 14.6581C40.6461 15.4391 41.1285 16.5505 41.43 17.8421H30.3036C30.7559 16.5805 31.3288 15.4992 32.1882 14.7032ZM43.1035 30.2776L40.631 30.3377C39.0329 30.3377 37.6609 30.2025 36.5453 29.9322C35.4447 29.6619 34.4647 29.2564 33.6054 28.7157C32.2636 27.8746 31.2836 26.8233 30.6353 25.5617C30.1227 24.5254 29.8363 23.339 29.7458 22.1224H47.0837L47.0686 21.2964C47.0535 19.1637 46.7822 17.2864 46.2545 15.7545C45.7117 14.1775 44.9278 12.8258 43.9026 11.7294C42.9678 10.7382 41.8522 10.0023 40.5858 9.50666C39.3344 9.02606 37.8871 8.80078 36.3041 8.80078C34.6909 8.80078 33.1079 9.11617 31.6153 9.74696C30.1076 10.3627 28.796 11.2789 27.7859 12.4503C26.625 13.757 25.7506 15.2138 25.1777 16.7457C24.5897 18.2776 24.3032 20.0198 24.3032 21.8972C24.3032 23.8346 24.7103 25.6368 25.4943 27.2438C26.2481 28.8208 27.213 30.1425 28.3437 31.1788C29.6252 32.3953 31.3138 33.3715 33.3189 34.0624C35.309 34.7382 37.6609 35.0987 40.2993 35.0987L42.9075 35.0386L44.9278 34.8884V34.8734L45.5308 34.7833L45.5459 30.1274H45.5007L43.1035 30.2776Z" fill="black"/>
<mask id="mask0_62_733" style="mask-type:alpha" maskUnits="userSpaceOnUse" x="0" y="1" width="21" height="35">
<path fill-rule="evenodd" clip-rule="evenodd" d="M0 1.08203H20.6698V35.1296H0V1.08203Z" fill="white"/>
</mask>
<g mask="url(#mask0_62_733)">
<path fill-rule="evenodd" clip-rule="evenodd" d="M15.4232 16.9419C15.4081 16.9419 12.1667 15.2447 12.1667 15.2447L9.63384 13.9381C8.4428 13.2322 7.64375 12.5864 7.25176 11.9857C6.85977 11.3849 6.67886 10.8142 6.67886 10.1984C6.67886 9.49254 6.85977 8.90681 7.20653 8.38116C7.58344 7.82546 8.03574 7.40494 8.56341 7.10456C9.2117 6.74411 9.96552 6.45875 10.8249 6.29355L13.4331 6.00819L17.1419 6.14336L19.9009 6.39868V1.39743L19.4184 1.35237V1.33735L16.9459 1.17214L13.8854 1.08203C12.0159 1.08203 10.267 1.27728 8.72925 1.66776C7.13115 2.07327 5.75919 2.70406 4.65862 3.51507C3.55804 4.34111 2.63837 5.33234 1.95994 6.47377C1.25134 7.67527 0.889509 9.07202 0.889509 10.679C0.889509 12.241 1.2815 13.6828 2.05039 14.9594C2.81929 16.236 4.10079 17.4074 5.83458 18.4437L9.15139 20.1859L12.0159 21.6427C13.0713 22.2435 13.8251 22.8743 14.2623 23.5051C14.6694 24.1058 14.8804 24.8417 14.8804 25.7278C14.8804 26.5389 14.6844 27.1997 14.2925 27.7103C13.8703 28.251 13.2371 28.7316 12.4079 29.1371C11.7596 29.4525 10.7947 29.7078 9.54338 29.9331L6.3924 30.2485L2.83437 30.1133L0 29.828V34.8292L0.286452 34.8743L2.95498 35.0395L6.19641 35.1296C8.14127 35.1296 9.95044 34.9494 11.5485 34.5889C13.1768 34.2134 14.6543 33.6578 15.9358 32.9369C17.368 32.1108 18.5289 31.0295 19.3732 29.6928C20.2476 28.3561 20.6698 26.7641 20.6698 24.9919C20.6698 23.2948 20.2175 21.7629 19.3129 20.4262C18.4385 19.1046 17.1268 17.9331 15.4232 16.9419Z" fill="black"/>
</g>
</svg>
